<svg width="96" height="96" viewBox="0 0 96 96" fill="none" xmlns="http://www.w3.org/2000/svg">
<g clip-path="url(#clip0_166_2)">
<path d="M71.2399 17.88C70.9199 17.88 70.5999 17.8 70.3199 17.64C62.6399 13.68 55.9999 12 48.0399 12C40.1199 12 32.5999 13.88 25.7599 17.64C24.7999 18.16 23.5999 17.8 23.0399 16.84C22.5199 15.88 22.8799 14.64 23.8399 14.12C31.2799 10.08 39.4399 8 48.0399 8C56.5599 8 63.9999 9.88 72.1599 14.08C73.1599 14.6 73.5199 15.8 72.9999 16.76C72.6399 17.48 71.9599 17.88 71.2399 17.88ZM13.9999 38.88C13.5999 38.88 13.1999 38.76 12.8399 38.52C11.9199 37.88 11.7199 36.64 12.3599 35.72C16.3199 30.12 21.3599 25.72 27.3599 22.64C39.9199 16.16 55.9999 16.12 68.5999 22.6C74.5999 25.68 79.6399 30.04 83.5999 35.6C84.2399 36.48 84.0399 37.76 83.1199 38.4C82.1999 39.04 80.9599 38.84 80.3199 37.92C76.7199 32.88 72.1599 28.92 66.7599 26.16C55.2799 20.28 40.5999 20.28 29.1599 26.2C23.7199 29 19.1599 33 15.5599 38.04C15.2399 38.6 14.6399 38.88 13.9999 38.88ZM38.9999 87.16C38.4799 87.16 37.9599 86.96 37.5999 86.56C34.1199 83.08 32.2399 80.84 29.5599 76C26.7999 71.08 25.3599 65.08 25.3599 58.64C25.3599 46.76 35.5199 37.08 47.9999 37.08C60.4799 37.08 70.6399 46.76 70.6399 58.64C70.6399 59.76 69.7599 60.64 68.6399 60.64C67.5199 60.64 66.6399 59.76 66.6399 58.64C66.6399 48.96 58.2799 41.08 47.9999 41.08C37.7199 41.08 29.3599 48.96 29.3599 58.64C29.3599 64.4 30.6399 69.72 33.0799 74.04C35.6399 78.64 37.3999 80.6 40.4799 83.72C41.2399 84.52 41.2399 85.76 40.4799 86.56C40.0399 86.96 39.5199 87.16 38.9999 87.16ZM67.6799 79.76C62.9199 79.76 58.7199 78.56 55.2799 76.2C49.3199 72.16 45.7599 65.6 45.7599 58.64C45.7599 57.52 46.6399 56.64 47.7599 56.64C48.8799 56.64 49.7599 57.52 49.7599 58.64C49.7599 64.28 52.6399 69.6 57.5199 72.88C60.3599 74.8 63.6799 75.72 67.6799 75.72C68.6399 75.72 70.2399 75.6 71.8399 75.32C72.9199 75.12 73.9599 75.84 74.1599 76.96C74.3599 78.04 73.6399 79.08 72.5199 79.28C70.2399 79.72 68.2399 79.76 67.6799 79.76ZM59.6399 88C59.4799 88 59.2799 87.96 59.1199 87.92C52.7599 86.16 48.5999 83.8 44.2399 79.52C38.6399 73.96 35.5599 66.56 35.5599 58.64C35.5599 52.16 41.0799 46.88 47.8799 46.88C54.6799 46.88 60.1999 52.16 60.1999 58.64C60.1999 62.92 63.9199 66.4 68.5199 66.4C73.1199 66.4 76.8399 62.92 76.8399 58.64C76.8399 43.56 63.8399 31.32 47.8399 31.32C36.4799 31.32 26.0799 37.64 21.3999 47.44C19.8399 50.68 19.0399 54.48 19.0399 58.64C19.0399 61.76 19.3199 66.68 21.7199 73.08C22.1199 74.12 21.5999 75.28 20.5599 75.64C19.5199 76.04 18.3599 75.48 17.9999 74.48C16.0399 69.24 15.0799 64.04 15.0799 58.64C15.0799 53.84 15.9999 49.48 17.7999 45.68C23.1199 34.52 34.9199 27.28 47.8399 27.28C66.0399 27.28 80.8399 41.32 80.8399 58.6C80.8399 65.08 75.3199 70.36 68.5199 70.36C61.7199 70.36 56.1999 65.08 56.1999 58.6C56.1999 54.32 52.4799 50.84 47.8799 50.84C43.2799 50.84 39.5599 54.32 39.5599 58.6C39.5599 65.44 42.1999 71.84 47.0399 76.64C50.8399 80.4 54.4799 82.48 60.1199 84.04C61.1999 84.32 61.7999 85.44 61.5199 86.48C61.3199 87.4 60.4799 88 59.6399 88Z" fill="#0DAB7B"/>
</g>
<defs>
<clipPath id="clip0_166_2">
<rect width="96" height="96" fill="white"/>
</clipPath>
</defs>
</svg>
