<svg width="96" height="96" viewBox="0 0 96 96" fill="none" xmlns="http://www.w3.org/2000/svg">
<g clip-path="url(#clip0_166_5)">
<path d="M71.24 17.88C70.92 17.88 70.6 17.8 70.32 17.64C62.64 13.68 56 12 48.04 12C40.12 12 32.6 13.88 25.76 17.64C24.8 18.16 23.6 17.8 23.04 16.84C22.52 15.88 22.88 14.64 23.84 14.12C31.28 10.08 39.44 8 48.04 8C56.56 8 64 9.88 72.16 14.08C73.16 14.6 73.52 15.8 73 16.76C72.64 17.48 71.96 17.88 71.24 17.88ZM14 38.88C13.6 38.88 13.2 38.76 12.84 38.52C11.92 37.88 11.72 36.64 12.36 35.72C16.32 30.12 21.36 25.72 27.36 22.64C39.92 16.16 56 16.12 68.6 22.6C74.6 25.68 79.64 30.04 83.6 35.6C84.24 36.48 84.04 37.76 83.12 38.4C82.2 39.04 80.96 38.84 80.32 37.92C76.72 32.88 72.16 28.92 66.76 26.16C55.28 20.28 40.6 20.28 29.16 26.2C23.72 29 19.16 33 15.56 38.04C15.24 38.6 14.64 38.88 14 38.88ZM39 87.16C38.48 87.16 37.96 86.96 37.6 86.56C34.12 83.08 32.24 80.84 29.56 76C26.8 71.08 25.36 65.08 25.36 58.64C25.36 46.76 35.52 37.08 48 37.08C60.48 37.08 70.64 46.76 70.64 58.64C70.64 59.76 69.76 60.64 68.64 60.64C67.52 60.64 66.64 59.76 66.64 58.64C66.64 48.96 58.28 41.08 48 41.08C37.72 41.08 29.36 48.96 29.36 58.64C29.36 64.4 30.64 69.72 33.08 74.04C35.64 78.64 37.4 80.6 40.48 83.72C41.24 84.52 41.24 85.76 40.48 86.56C40.04 86.96 39.52 87.16 39 87.16ZM67.68 79.76C62.92 79.76 58.72 78.56 55.28 76.2C49.32 72.16 45.76 65.6 45.76 58.64C45.76 57.52 46.64 56.64 47.76 56.64C48.88 56.64 49.76 57.52 49.76 58.64C49.76 64.28 52.64 69.6 57.52 72.88C60.36 74.8 63.68 75.72 67.68 75.72C68.64 75.72 70.24 75.6 71.84 75.32C72.92 75.12 73.96 75.84 74.16 76.96C74.36 78.04 73.64 79.08 72.52 79.28C70.24 79.72 68.24 79.76 67.68 79.76ZM59.64 88C59.48 88 59.28 87.96 59.12 87.92C52.76 86.16 48.6 83.8 44.24 79.52C38.64 73.96 35.56 66.56 35.56 58.64C35.56 52.16 41.08 46.88 47.88 46.88C54.68 46.88 60.2 52.16 60.2 58.64C60.2 62.92 63.92 66.4 68.52 66.4C73.12 66.4 76.84 62.92 76.84 58.64C76.84 43.56 63.84 31.32 47.84 31.32C36.48 31.32 26.08 37.64 21.4 47.44C19.84 50.68 19.04 54.48 19.04 58.64C19.04 61.76 19.32 66.68 21.72 73.08C22.12 74.12 21.6 75.28 20.56 75.64C19.52 76.04 18.36 75.48 18 74.48C16.04 69.24 15.08 64.04 15.08 58.64C15.08 53.84 16 49.48 17.8 45.68C23.12 34.52 34.92 27.28 47.84 27.28C66.04 27.28 80.84 41.32 80.84 58.6C80.84 65.08 75.32 70.36 68.52 70.36C61.72 70.36 56.2 65.08 56.2 58.6C56.2 54.32 52.48 50.84 47.88 50.84C43.28 50.84 39.56 54.32 39.56 58.6C39.56 65.44 42.2 71.84 47.04 76.64C50.84 80.4 54.48 82.48 60.12 84.04C61.2 84.32 61.8 85.44 61.52 86.48C61.32 87.4 60.48 88 59.64 88Z" fill="#CCCCCC"/>
</g>
<defs>
<clipPath id="clip0_166_5">
<rect width="96" height="96" fill="white"/>
</clipPath>
</defs>
</svg>
