<svg width="56" height="56" viewBox="0 0 56 56" fill="none" xmlns="http://www.w3.org/2000/svg">
<path d="M27.9612 18.6408C30.5243 18.6408 32.6214 16.5437 32.6214 13.9806C32.6214 11.4175 30.5243 9.3204 27.9612 9.3204C25.3981 9.3204 23.301 11.4175 23.301 13.9806C23.301 16.5437 25.3981 18.6408 27.9612 18.6408ZM27.9612 23.301C25.3981 23.301 23.301 25.3981 23.301 27.9612C23.301 30.5243 25.3981 32.6214 27.9612 32.6214C30.5243 32.6214 32.6214 30.5243 32.6214 27.9612C32.6214 25.3981 30.5243 23.301 27.9612 23.301ZM27.9612 37.2816C25.3981 37.2816 23.301 39.3787 23.301 41.9418C23.301 44.5049 25.3981 46.602 27.9612 46.602C30.5243 46.602 32.6214 44.5049 32.6214 41.9418C32.6214 39.3787 30.5243 37.2816 27.9612 37.2816Z" fill="#CCCCCC"/>
</svg>
