<svg width="102" height="102" viewBox="0 0 102 102" fill="none" xmlns="http://www.w3.org/2000/svg">
<rect width="102" height="102" rx="51" fill="#303746"/>
<mask id="mask0_202_38" style="mask-type:alpha" maskUnits="userSpaceOnUse" x="4" y="4" width="94" height="94">
<rect x="4" y="4" width="94" height="94" fill="#D9D9D9"/>
</mask>
<g mask="url(#mask0_202_38)">
<path d="M45.5166 69.0167L73.1291 41.4042L67.6458 35.9208L45.5166 58.05L34.3541 46.8875L28.8708 52.3708L45.5166 69.0167ZM51 90.1667C45.5819 90.1667 40.4903 89.1379 35.725 87.0803C30.9597 85.0254 26.8146 82.2354 23.2896 78.7104C19.7646 75.1854 16.9746 71.0403 14.9196 66.275C12.8621 61.5097 11.8333 56.4181 11.8333 51C11.8333 45.5819 12.8621 40.4903 14.9196 35.725C16.9746 30.9597 19.7646 26.8146 23.2896 23.2896C26.8146 19.7646 30.9597 16.9733 35.725 14.9158C40.4903 12.8608 45.5819 11.8333 51 11.8333C56.418 11.8333 61.5097 12.8608 66.275 14.9158C71.0403 16.9733 75.1854 19.7646 78.7104 23.2896C82.2354 26.8146 85.0254 30.9597 87.0803 35.725C89.1379 40.4903 90.1666 45.5819 90.1666 51C90.1666 56.4181 89.1379 61.5097 87.0803 66.275C85.0254 71.0403 82.2354 75.1854 78.7104 78.7104C75.1854 82.2354 71.0403 85.0254 66.275 87.0803C61.5097 89.1379 56.418 90.1667 51 90.1667Z" fill="#00DF80"/>
</g>
</svg>
