<svg width="382" height="438" viewBox="0 0 382 438" fill="none" xmlns="http://www.w3.org/2000/svg">
<path d="M191.059 218.999C251.325 218.999 300.168 170.155 300.168 109.889C300.168 49.6236 251.325 0.780151 191.059 0.780151C130.793 0.780151 81.9496 49.6236 81.9496 109.889C81.9496 170.155 130.793 218.999 191.059 218.999ZM267.435 246.276H253.2C234.276 254.971 213.222 259.915 191.059 259.915C168.896 259.915 147.927 254.971 128.918 246.276H114.682C51.4331 246.276 0.117676 297.591 0.117676 360.841V396.301C0.117676 418.89 18.4446 437.217 41.0336 437.217H341.084C363.673 437.217 382 418.89 382 396.301V360.841C382 297.591 330.685 246.276 267.435 246.276Z" fill="#A8A8A8"/>
</svg>
